<?xml version="1.0" standalone="no"?>
<!DOCTYPE svg PUBLIC "-//W3C//DTD SVG 20010904//EN"
 "http://www.w3.org/TR/2001/REC-SVG-20010904/DTD/svg10.dtd">
<svg version="1.0" xmlns="http://www.w3.org/2000/svg"
 width="859.000000pt" height="859.000000pt" viewBox="0 0 859.000000 859.000000"
 preserveAspectRatio="xMidYMid meet">
<metadata>
Created by potrace 1.11, written by Peter Selinger 2001-2013
</metadata>
<g transform="translate(0.000000,859.000000) scale(0.100000,-0.100000)"
fill="#000000" stroke="none">
<path d="M0 5538 l0 -3051 1963 7 c2449 8 2792 8 4910 0 l1717 -7 0 3051 0
3052 -2329 0 c-2209 0 -2329 -1 -2336 -17 -6 -17 -7 -17 -19 0 -13 16 -117 17
-1960 17 l-1946 0 0 -3052z m2910 3027 c0 -8 -6 -15 -14 -15 -17 0 -28 14 -19
24 12 12 33 6 33 -9z m2060 -45 c0 -5 -4 -10 -9 -10 -6 0 -13 5 -16 10 -3 6 1
10 9 10 9 0 16 -4 16 -10z m1540 0 c0 -5 -4 -10 -10 -10 -5 0 -10 5 -10 10 0
6 5 10 10 10 6 0 10 -4 10 -10z m-2433 -6 c-3 -3 -12 -4 -19 -1 -8 3 -5 6 6 6
11 1 17 -2 13 -5z m-217 -14 c0 -5 -7 -10 -15 -10 -8 0 -15 5 -15 10 0 6 7 10
15 10 8 0 15 -4 15 -10z m1340 0 c0 -5 -5 -10 -11 -10 -5 0 -7 5 -4 10 3 6 8
10 11 10 2 0 4 -4 4 -10z m3270 -20 c0 -5 -4 -10 -10 -10 -5 0 -10 5 -10 10 0
6 5 10 10 10 6 0 10 -4 10 -10z m-756 -69 c3 -4 2 -11 -2 -15 -4 -4 -7 -13 -7
-18 0 -6 -5 -13 -12 -15 -7 -3 -11 7 -11 26 1 29 20 42 32 22z m-2664 -11 c0
-5 -4 -10 -9 -10 -6 0 -13 5 -16 10 -3 6 1 10 9 10 9 0 16 -4 16 -10z m40 -6
c0 -8 -4 -12 -10 -9 -5 3 -10 10 -10 16 0 5 5 9 10 9 6 0 10 -7 10 -16z m-30
-40 c0 -8 -7 -14 -15 -14 -15 0 -21 21 -9 33 10 9 24 -2 24 -19z m-2425 -4 c3
-5 2 -10 -4 -10 -5 0 -13 5 -16 10 -3 6 -2 10 4 10 5 0 13 -4 16 -10z m2115
-35 c0 -8 -4 -15 -10 -15 -5 0 -10 7 -10 15 0 8 5 15 10 15 6 0 10 -7 10 -15z
m3100 -33 c18 -14 34 -18 55 -14 27 5 29 4 16 -11 -7 -10 -10 -17 -5 -17 5 -1
-3 -8 -18 -16 -30 -16 -36 -42 -15 -63 10 -11 8 -12 -9 -3 -30 16 -43 -2 -37
-51 6 -47 -6 -43 -22 6 -10 29 -14 32 -52 31 -38 -1 -41 1 -32 19 6 10 8 30 4
44 -9 39 4 83 25 83 30 0 50 11 51 29 0 15 1 15 7 -1 4 -9 18 -25 32 -36z
m-1590 -2 c0 -5 -7 -10 -15 -10 -8 0 -15 5 -15 10 0 6 7 10 15 10 8 0 15 -4
15 -10z m260 -24 c0 -3 -4 -8 -10 -11 -5 -3 -10 -1 -10 4 0 6 5 11 10 11 6 0
10 -2 10 -4z m-4130 -26 c0 -5 -2 -10 -4 -10 -3 0 -8 5 -11 10 -3 6 -1 10 4
10 6 0 11 -4 11 -10z m4218 -82 c3 -33 0 -38 -18 -38 -31 0 -60 18 -60 38 0
26 21 43 50 40 21 -3 25 -9 28 -40z m-4478 8 c0 -29 -24 -41 -40 -20 -10 11
-10 17 0 29 19 23 40 18 40 -9z m325 14 c3 -5 1 -10 -4 -10 -6 0 -11 5 -11 10
0 6 2 10 4 10 3 0 8 -4 11 -10z m5735 -10 c0 -11 -4 -20 -9 -20 -14 0 -23 18
-16 30 10 17 25 11 25 -10z m-1910 -10 c0 -21 -33 -29 -45 -10 -9 15 4 30 26
30 12 0 19 -7 19 -20z m1160 0 c0 -5 -4 -10 -10 -10 -5 0 -10 5 -10 10 0 6 5
10 10 10 6 0 10 -4 10 -10z m-5980 -15 c0 -8 -4 -15 -9 -15 -13 0 -22 16 -14
24 11 11 23 6 23 -9z m5655 -15 c3 -5 -1 -10 -9 -10 -9 0 -16 5 -16 10 0 6 4
10 9 10 6 0 13 -4 16 -10z m-6735 -16 c0 -8 -5 -12 -10 -9 -6 4 -8 11 -5 16 9
14 15 11 15 -7z m1115 -4 c3 -5 -1 -10 -10 -10 -9 0 -13 5 -10 10 3 6 8 10 10
10 2 0 7 -4 10 -10z m-795 -25 c0 -8 -4 -15 -10 -15 -5 0 -10 7 -10 15 0 8 5
15 10 15 6 0 10 -7 10 -15z m3770 5 c0 -5 -4 -10 -10 -10 -5 0 -10 5 -10 10 0
6 5 10 10 10 6 0 10 -4 10 -10z m848 -13 c2 -11 -3 -17 -16 -17 -26 0 -34 11
-20 27 14 17 32 12 36 -10z m-358 -13 c0 -9 -7 -14 -17 -12 -25 5 -28 28 -4
28 12 0 21 -6 21 -16z m3332 -24 c-4 -30 -25 -40 -37 -19 -6 9 22 47 36 48 3
1 4 -12 1 -29z m-994 -13 c4 -20 -25 -34 -40 -19 -15 15 -1 44 19 40 10 -2 19
-11 21 -21z m-7068 -28 c0 -5 -4 -9 -10 -9 -5 0 -10 7 -10 16 0 8 5 12 10 9 6
-3 10 -10 10 -16z m2740 1 c0 -5 -7 -10 -16 -10 -8 0 -12 5 -9 10 3 6 10 10
16 10 5 0 9 -4 9 -10z m5267 4 c-3 -3 -12 -4 -19 -1 -8 3 -5 6 6 6 11 1 17 -2
13 -5z m-6827 -30 c0 -8 -4 -12 -10 -9 -5 3 -10 10 -10 16 0 5 5 9 10 9 6 0
10 -7 10 -16z m6845 6 c3 -5 -1 -10 -9 -10 -9 0 -16 5 -16 10 0 6 4 10 9 10 6
0 13 -4 16 -10z m-3825 -30 c0 -5 -4 -10 -10 -10 -5 0 -10 5 -10 10 0 6 5 10
10 10 6 0 10 -4 10 -10z m750 0 c0 -5 -7 -10 -15 -10 -8 0 -15 5 -15 10 0 6 7
10 15 10 8 0 15 -4 15 -10z m2090 -40 c0 -5 -9 -6 -20 -3 -11 3 -17 9 -15 14
7 10 35 1 35 -11z m-2802 -32 c-6 -18 -28 -21 -28 -4 0 9 7 16 16 16 9 0 14
-5 12 -12z m562 2 c0 -5 -2 -10 -4 -10 -3 0 -8 5 -11 10 -3 6 -1 10 4 10 6 0
11 -4 11 -10z m-1240 -20 c0 -5 -7 -7 -15 -4 -8 4 -12 10 -9 15 6 11 24 2 24
-11z m-1935 -50 c3 -5 1 -10 -4 -10 -6 0 -11 5 -11 10 0 6 2 10 4 10 3 0 8 -4
11 -10z m15 -34 c0 -3 -4 -8 -10 -11 -5 -3 -10 -1 -10 4 0 6 5 11 10 11 6 0
10 -2 10 -4z m950 -16 c0 -5 -4 -10 -10 -10 -5 0 -10 5 -10 10 0 6 5 10 10 10
6 0 10 -4 10 -10z m-1720 -46 c0 -8 -5 -12 -10 -9 -6 4 -8 11 -5 16 9 14 15
11 15 -7z m6735 6 c3 -5 -1 -10 -10 -10 -9 0 -13 5 -10 10 3 6 8 10 10 10 2 0
7 -4 10 -10z m-355 -24 c0 -11 -19 -15 -25 -6 -3 5 1 10 9 10 9 0 16 -2 16 -4z
m-2220 -41 c10 -12 10 -15 -3 -15 -8 0 -17 7 -21 15 -3 8 -2 15 3 15 5 0 14
-7 21 -15z m-3645 -5 c3 -5 -1 -10 -9 -10 -9 0 -16 5 -16 10 0 6 4 10 9 10 6
0 13 -4 16 -10z m1555 0 c0 -5 -4 -10 -10 -10 -5 0 -10 5 -10 10 0 6 5 10 10
10 6 0 10 -4 10 -10z m3860 -20 c0 -5 -7 -10 -15 -10 -8 0 -15 5 -15 10 0 6 7
10 15 10 8 0 15 -4 15 -10z m-6507 -45 c4 -8 3 -16 -1 -19 -13 -8 -35 11 -28
23 10 15 23 14 29 -4z m3537 0 c0 -8 -4 -15 -9 -15 -13 0 -22 16 -14 24 11 11
23 6 23 -9z m3170 -15 c0 -5 -4 -10 -9 -10 -6 0 -13 5 -16 10 -3 6 1 10 9 10
9 0 16 -4 16 -10z m828 -8 c2 -7 -3 -12 -12 -12 -9 0 -16 7 -16 16 0 17 22 14
28 -4z m-4678 -17 c0 -8 -6 -15 -14 -15 -17 0 -28 14 -19 24 12 12 33 6 33 -9z
m2260 -13 c0 -13 -12 -22 -22 -16 -10 6 -1 24 13 24 5 0 9 -4 9 -8z m740 -42
c0 -5 -7 -10 -15 -10 -8 0 -15 5 -15 10 0 6 7 10 15 10 8 0 15 -4 15 -10z
m-4244 -53 c4 -4 0 -7 -9 -7 -9 0 -18 4 -21 9 -7 10 20 9 30 -2z m2424 -17 c0
-5 -4 -10 -10 -10 -5 0 -10 5 -10 10 0 6 5 10 10 10 6 0 10 -4 10 -10z m287
-16 c-9 -9 -28 6 -21 18 4 6 10 6 17 -1 6 -6 8 -13 4 -17z m-4097 -34 c0 -11
-4 -20 -9 -20 -14 0 -23 18 -16 30 10 17 25 11 25 -10z m1368 -3 c2 -11 -3
-17 -17 -17 -23 0 -35 15 -26 31 10 15 39 6 43 -14z m3232 -17 c0 -5 -4 -10
-10 -10 -5 0 -10 5 -10 10 0 6 5 10 10 10 6 0 10 -4 10 -10z m-475 -20 c0 -22
-29 -18 -33 3 -3 14 1 18 15 15 10 -2 18 -10 18 -18z m2225 4 c0 -9 -5 -14
-12 -12 -18 6 -21 28 -4 28 9 0 16 -7 16 -16z m-2995 -14 c3 -5 -1 -10 -10
-10 -9 0 -13 5 -10 10 3 6 8 10 10 10 2 0 7 -4 10 -10z m626 -5 c-1 -15 -24
-12 -29 3 -3 9 2 13 12 10 10 -1 17 -7 17 -13z m279 5 c0 -5 -4 -10 -10 -10
-5 0 -10 5 -10 10 0 6 5 10 10 10 6 0 10 -4 10 -10z m-690 -10 c0 -5 -5 -10
-11 -10 -5 0 -7 5 -4 10 3 6 8 10 11 10 2 0 4 -4 4 -10z m-595 -10 c3 -5 -1
-10 -9 -10 -9 0 -16 5 -16 10 0 6 4 10 9 10 6 0 13 -4 16 -10z m-3465 -20 c0
-5 -4 -10 -10 -10 -5 0 -10 5 -10 10 0 6 5 10 10 10 6 0 10 -4 10 -10z m6080
-16 c0 -8 -7 -14 -15 -14 -15 0 -21 21 -9 33 10 9 24 -2 24 -19z m-1650 6 c0
-5 -2 -10 -4 -10 -3 0 -8 5 -11 10 -3 6 -1 10 4 10 6 0 11 -4 11 -10z m745 0
c3 -5 1 -10 -4 -10 -6 0 -11 5 -11 10 0 6 2 10 4 10 3 0 8 -4 11 -10z m1515
-5 c0 -8 -7 -15 -15 -15 -8 0 -15 7 -15 15 0 8 7 15 15 15 8 0 15 -7 15 -15z
m-3540 -21 c0 -8 -9 -14 -20 -14 -22 0 -28 26 -7 33 16 6 27 -1 27 -19z m3810
-4 c0 -5 -4 -10 -10 -10 -5 0 -10 5 -10 10 0 6 5 10 10 10 6 0 10 -4 10 -10z
m560 -16 c0 -16 -16 -19 -25 -4 -8 13 4 32 16 25 5 -4 9 -13 9 -21z m-5100 -4
c0 -5 -4 -10 -10 -10 -5 0 -10 5 -10 10 0 6 5 10 10 10 6 0 10 -4 10 -10z
m2580 0 c0 -5 -2 -10 -4 -10 -3 0 -8 5 -11 10 -3 6 -1 10 4 10 6 0 11 -4 11
-10z m-4180 -15 c0 -8 -6 -15 -14 -15 -17 0 -28 14 -19 24 12 12 33 6 33 -9z
m3274 -17 l91 -12 -70 -13 c-54 -9 -91 -10 -162 -1 -51 6 -91 13 -89 15 2 3
68 14 130 22 5 0 50 -4 100 -11z m-2014 -8 c0 -5 -4 -10 -10 -10 -5 0 -10 5
-10 10 0 6 5 10 10 10 6 0 10 -4 10 -10z m4010 0 c0 -5 -5 -10 -11 -10 -5 0
-7 5 -4 10 3 6 8 10 11 10 2 0 4 -4 4 -10z m-3823 -6 c-3 -3 -12 -4 -19 -1 -8
3 -5 6 6 6 11 1 17 -2 13 -5z m4498 -4 c3 -5 1 -10 -4 -10 -6 0 -11 5 -11 10
0 6 2 10 4 10 3 0 8 -4 11 -10z m-6505 -20 c0 -5 -4 -10 -10 -10 -5 0 -10 5
-10 10 0 6 5 10 10 10 6 0 10 -4 10 -10z m4101 1 c8 12 13 10 28 -8 22 -27 36
-30 27 -7 -5 13 -4 14 7 5 8 -6 43 -12 78 -14 35 -1 74 -8 86 -15 26 -15 44
-16 23 -1 -11 7 -2 8 30 4 25 -3 122 -14 215 -25 94 -12 177 -23 185 -25 8 -2
-68 -3 -170 -1 -197 4 -541 43 -517 58 7 5 -2 7 -23 5 -19 -2 -27 -2 -18 0 11
3 15 10 11 21 -6 15 -5 15 11 3 15 -13 19 -13 27 0z m-3641 -17 c0 -8 -4 -12
-10 -9 -5 3 -10 10 -10 16 0 5 5 9 10 9 6 0 10 -7 10 -16z m3518 -1 c-10 -2
-28 -2 -40 0 -13 2 -5 4 17 4 22 1 32 -1 23 -4z m-2928 -33 c0 -5 -4 -10 -10
-10 -5 0 -10 5 -10 10 0 6 5 10 10 10 6 0 10 -4 10 -10z m2505 -15 c0 -22 -14
-28 -34 -16 -12 8 -13 12 -1 26 16 20 35 14 35 -10z m2635 5 c0 -5 -4 -10 -10
-10 -5 0 -10 5 -10 10 0 6 5 10 10 10 6 0 10 -4 10 -10z m-4320 -20 c0 -5 -4
-10 -10 -10 -5 0 -10 5 -10 10 0 6 5 10 10 10 6 0 10 -4 10 -10z m1505 -10 c3
-5 -3 -10 -14 -10 -12 0 -21 5 -21 10 0 6 6 10 14 10 8 0 18 -4 21 -10z m2916
-3 c-1 -12 -15 -9 -19 4 -3 6 1 10 8 8 6 -3 11 -8 11 -12z m-2197 -47 c1882 0
2086 -2 2100 -16 9 -8 16 -21 16 -28 0 -6 -50 -95 -111 -196 -94 -157 -277
-479 -423 -742 -21 -38 -36 -74 -33 -80 3 -8 7 -6 12 7 5 11 31 49 59 85 27
36 51 67 53 69 11 15 13 -13 3 -46 -22 -72 -28 -118 -19 -135 7 -13 6 -16 -3
-13 -13 5 -38 -56 -38 -90 0 -8 -4 -15 -10 -15 -5 0 -7 -7 -3 -15 3 -9 -1 -23
-9 -33 -8 -9 -23 -36 -34 -59 -10 -24 -22 -43 -26 -43 -5 0 -8 -9 -8 -20 0
-11 -4 -20 -9 -20 -9 0 -37 -60 -34 -71 1 -4 -5 -6 -15 -5 -9 0 -16 -5 -14
-12 1 -7 -5 -15 -13 -18 -8 -4 -15 -11 -15 -18 0 -6 -10 -18 -21 -26 -12 -8
-34 -26 -48 -40 -15 -14 -45 -38 -66 -54 -22 -16 -48 -38 -59 -48 -10 -11 -20
-17 -23 -14 -5 5 33 108 47 131 4 6 10 19 14 30 12 34 5 23 -146 -210 -25 -38
-94 -153 -153 -255 -59 -102 -221 -374 -360 -605 -139 -231 -395 -661 -570
-955 -174 -294 -324 -543 -332 -552 -9 -10 -26 -18 -39 -18 -29 0 -66 54 -194
280 -113 201 -393 677 -670 1140 -201 335 -324 543 -370 625 -70 124 -155 270
-248 420 -172 279 -329 543 -497 840 -87 154 -223 390 -302 524 -78 134 -143
249 -143 257 0 7 10 20 23 28 18 12 71 15 297 14 183 -1 282 2 295 9 12 7 26
8 37 2 10 -5 860 -9 2102 -9z m2326 10 c0 -5 -5 -10 -11 -10 -5 0 -7 5 -4 10
3 6 8 10 11 10 2 0 4 -4 4 -10z m875 -29 c3 -5 1 -12 -5 -16 -5 -3 -10 1 -10
9 0 18 6 21 15 7z m215 -21 c0 -5 -7 -10 -16 -10 -8 0 -12 5 -9 10 3 6 10 10
16 10 5 0 9 -4 9 -10z m-6280 -41 c0 -5 -7 -9 -15 -9 -15 0 -20 12 -9 23 8 8
24 -1 24 -14z m65 1 c3 -5 -1 -10 -9 -10 -9 0 -16 5 -16 10 0 6 4 10 9 10 6 0
13 -4 16 -10z m5623 -47 c-2 -10 -12 -18 -23 -18 -11 0 -21 8 -23 18 -3 13 3
17 23 17 20 0 26 -4 23 -17z m-5968 -13 c0 -5 -4 -10 -10 -10 -5 0 -10 5 -10
10 0 6 5 10 10 10 6 0 10 -4 10 -10z m145 0 c3 -5 -1 -10 -9 -10 -9 0 -16 5
-16 10 0 6 4 10 9 10 6 0 13 -4 16 -10z m5300 -10 c83 -11 154 -20 158 -20 5
0 5 -6 1 -12 -6 -10 -5 -10 8 -1 15 13 28 8 28 -9 0 -5 -5 -6 -12 -2 -7 4 -8
3 -4 -5 5 -7 -4 -29 -19 -52 -23 -35 -28 -39 -42 -27 -15 12 -15 11 -4 -9 9
-18 9 -23 0 -23 -7 0 -9 -3 -6 -7 4 -3 2 -12 -4 -20 -9 -10 -15 -11 -26 -2
-11 9 -12 9 -8 -3 4 -10 -1 -17 -15 -21 -17 -4 -20 -9 -12 -23 7 -13 6 -24 -5
-41 -15 -22 -16 -22 -28 -6 -14 19 -1 48 17 37 5 -3 8 0 7 7 -3 16 34 79 47
82 5 1 8 6 6 11 -1 4 9 23 23 41 14 19 25 38 25 44 0 6 8 7 17 4 15 -6 16 -5
3 9 -13 13 -16 14 -23 2 -4 -8 -13 -14 -18 -14 -6 0 -8 3 -6 8 3 4 -31 8 -76
10 -44 1 -84 5 -89 8 -5 3 -37 8 -71 10 -70 5 -75 8 -57 29 15 18 4 19 185 -5z
m-6521 -96 c9 -25 7 -34 -8 -34 -19 0 -29 17 -22 35 7 20 22 19 30 -1z m7124
-21 c-2 -20 -9 -29 -25 -31 -20 -3 -23 1 -23 27 0 27 4 31 26 31 22 0 25 -4
22 -27z m432 -3 c0 -5 -7 -10 -15 -10 -8 0 -15 5 -15 10 0 6 7 10 15 10 8 0
15 -4 15 -10z m-6940 -35 c0 -8 -4 -15 -9 -15 -13 0 -22 16 -14 24 11 11 23 6
23 -9z m6150 -11 c0 -9 -7 -14 -17 -12 -25 5 -28 28 -4 28 12 0 21 -6 21 -16z
m-240 -139 c0 -10 -6 -12 -17 -8 -15 6 -16 4 -6 -8 8 -9 9 -20 3 -29 -6 -8
-10 -10 -10 -5 -1 6 -7 -3 -14 -20 -7 -16 -71 -114 -142 -216 -71 -102 -133
-193 -139 -201 -5 -9 -50 -73 -100 -142 -49 -70 -153 -215 -230 -324 -77 -108
-172 -240 -210 -292 -39 -52 -116 -160 -171 -240 -154 -221 -248 -354 -559
-785 -64 -88 -132 -182 -151 -210 -82 -118 -159 -227 -323 -456 -162 -227
-216 -299 -180 -239 9 14 64 106 122 205 59 99 152 243 207 320 54 77 125 178
158 225 133 192 452 644 547 775 242 334 365 514 365 534 0 8 3 12 6 8 4 -3
73 87 153 201 81 114 185 259 232 323 46 64 147 204 224 310 77 107 151 205
165 218 14 13 19 21 11 16 -8 -5 -2 8 13 28 27 36 46 40 46 12z m-4836 -71 c9
-23 8 -24 -14 -24 -19 0 -27 20 -13 33 11 11 20 8 27 -9z m-1464 -55 c0 -23
-28 -26 -37 -3 -6 16 15 37 29 28 4 -3 8 -14 8 -25z m7380 21 c0 -5 -7 -10
-15 -10 -8 0 -15 5 -15 10 0 6 7 10 15 10 8 0 15 -4 15 -10z m-6750 -66 c0 -8
-4 -12 -10 -9 -5 3 -10 10 -10 16 0 5 5 9 10 9 6 0 10 -7 10 -16z m6700 -8 c0
-3 -4 -8 -10 -11 -5 -3 -10 -1 -10 4 0 6 5 11 10 11 6 0 10 -2 10 -4z m-5815
-36 c3 -5 4 -14 0 -20 -8 -13 -35 -1 -35 16 0 16 26 19 35 4z m42 -6 c-3 -3
-12 -4 -19 -1 -8 3 -5 6 6 6 11 1 17 -2 13 -5z m4633 -24 c0 -5 -4 -10 -10
-10 -5 0 -10 5 -10 10 0 6 5 10 10 10 6 0 10 -4 10 -10z m-6481 -39 c-3 -6
-10 -7 -18 -2 -7 5 -10 14 -6 21 9 14 29 -2 24 -19z m6071 -41 c0 -5 -5 -10
-11 -10 -5 0 -7 5 -4 10 3 6 8 10 11 10 2 0 4 -4 4 -10z m680 0 c0 -5 -5 -10
-11 -10 -5 0 -7 5 -4 10 3 6 8 10 11 10 2 0 4 -4 4 -10z m-530 -16 c0 -17 -22
-14 -28 4 -2 7 3 12 12 12 9 0 16 -7 16 -16z m1410 -14 c0 -5 -7 -10 -15 -10
-8 0 -15 5 -15 10 0 6 7 10 15 10 8 0 15 -4 15 -10z m-6880 -10 c0 -5 -4 -10
-10 -10 -5 0 -10 5 -10 10 0 6 5 10 10 10 6 0 10 -4 10 -10z m5265 -38 c-3 -3
-11 0 -18 7 -9 10 -8 11 6 5 10 -3 15 -9 12 -12z m-4900 -12 c3 -5 4 -14 0
-20 -8 -13 -35 -1 -35 16 0 16 26 19 35 4z m6832 -16 c-9 -9 -28 6 -21 18 4 6
10 6 17 -1 6 -6 8 -13 4 -17z m-1952 6 c-3 -5 -13 -10 -21 -10 -8 0 -12 5 -9
10 3 6 13 10 21 10 8 0 12 -4 9 -10z m55 0 c0 -5 -6 -10 -14 -10 -8 0 -18 5
-21 10 -3 6 3 10 14 10 12 0 21 -4 21 -10z m1326 -1 c10 -17 -13 -36 -27 -22
-12 12 -4 33 11 33 5 0 12 -5 16 -11z m-1066 -109 c0 -5 -7 -10 -15 -10 -8 0
-15 5 -15 10 0 6 7 10 15 10 8 0 15 -4 15 -10z m100 -10 c0 -5 -7 -10 -15 -10
-8 0 -15 5 -15 10 0 6 7 10 15 10 8 0 15 -4 15 -10z m-6412 -48 c2 -7 -3 -12
-12 -12 -9 0 -16 7 -16 16 0 17 22 14 28 -4z m8002 8 c0 -5 -4 -10 -10 -10 -5
0 -10 5 -10 10 0 6 5 10 10 10 6 0 10 -4 10 -10z m-7725 -19 c3 -5 1 -12 -5
-16 -5 -3 -10 1 -10 9 0 18 6 21 15 7z m1761 -141 c49 -69 96 -136 104 -149
l15 -22 25 28 c14 15 18 22 10 16 -23 -21 -35 -15 -15 7 18 20 18 21 0 14 -14
-6 -16 -4 -10 6 5 8 3 17 -6 24 -29 22 -89 156 -71 156 7 0 38 -50 97 -154 17
-29 36 -61 44 -70 20 -23 6 -46 -28 -46 l-30 0 26 -40 c15 -22 34 -40 44 -40
29 0 40 -50 12 -51 -16 0 -16 -1 1 -8 14 -5 16 -10 8 -15 -16 -10 -29 -1 -57
42 -13 21 -40 60 -60 87 -105 148 -194 287 -189 299 3 7 -2 19 -11 26 -8 7
-15 17 -15 23 0 16 6 8 106 -133z m-786 100 c0 -5 -4 -10 -10 -10 -5 0 -10 5
-10 10 0 6 5 10 10 10 6 0 10 -4 10 -10z m5260 -20 c0 -5 -4 -10 -10 -10 -5 0
-10 5 -10 10 0 6 5 10 10 10 6 0 10 -4 10 -10z m1045 1 c7 -12 -12 -24 -25
-16 -11 7 -4 25 10 25 5 0 11 -4 15 -9z m-6535 -56 c0 -9 -6 -12 -15 -9 -8 4
-15 10 -15 15 0 5 7 9 15 9 8 0 15 -7 15 -15z m-160 -20 c0 -8 -7 -15 -15 -15
-8 0 -15 7 -15 15 0 8 7 15 15 15 8 0 15 -7 15 -15z m5140 5 c0 -5 -4 -10 -9
-10 -6 0 -13 5 -16 10 -3 6 1 10 9 10 9 0 16 -4 16 -10z m167 -56 c-9 -9 -28
6 -21 18 4 6 10 6 17 -1 6 -6 8 -13 4 -17z m-4757 6 c0 -5 -7 -10 -15 -10 -8
0 -15 5 -15 10 0 6 7 10 15 10 8 0 15 -4 15 -10z m6528 -12 c-6 -18 -28 -21
-28 -4 0 9 7 16 16 16 9 0 14 -5 12 -12z m-6830 -45 c2 -8 -5 -13 -17 -13 -12
0 -21 6 -21 16 0 18 31 15 38 -3z m6066 1 c9 -24 8 -26 -16 -18 -32 9 -35 14
-18 24 21 13 27 12 34 -6z m-5182 -46 c-9 -9 -15 -9 -24 0 -10 10 -10 15 2 22
20 12 38 -6 22 -22z m5978 2 c0 -5 -4 -10 -10 -10 -5 0 -10 5 -10 10 0 6 5 10
10 10 6 0 10 -4 10 -10z m-930 -40 c0 -5 -4 -10 -10 -10 -5 0 -10 5 -10 10 0
6 5 10 10 10 6 0 10 -4 10 -10z m-6920 -20 c0 -5 -2 -10 -4 -10 -3 0 -8 5 -11
10 -3 6 -1 10 4 10 6 0 11 -4 11 -10z m988 -29 c3 -8 -1 -12 -9 -9 -7 2 -15
10 -17 17 -3 8 1 12 9 9 7 -2 15 -10 17 -17z m592 -36 c0 -8 -7 -15 -15 -15
-8 0 -15 7 -15 15 0 8 7 15 15 15 8 0 15 -7 15 -15z m5528 -33 c2 -7 -3 -12
-12 -12 -9 0 -16 7 -16 16 0 17 22 14 28 -4z m282 -2 c0 -5 -4 -10 -10 -10 -5
0 -10 5 -10 10 0 6 5 10 10 10 6 0 10 -4 10 -10z m-1420 -40 c0 -5 -7 -10 -16
-10 -8 0 -12 5 -9 10 3 6 10 10 16 10 5 0 9 -4 9 -10z m-5582 -18 c2 -7 -3
-12 -12 -12 -9 0 -16 7 -16 16 0 17 22 14 28 -4z m7612 -22 c0 -5 -4 -10 -10
-10 -5 0 -10 5 -10 10 0 6 5 10 10 10 6 0 10 -4 10 -10z m-1950 -80 c0 -5 -4
-10 -10 -10 -5 0 -10 5 -10 10 0 6 5 10 10 10 6 0 10 -4 10 -10z m-265 -50 c3
-5 -1 -10 -9 -10 -9 0 -16 5 -16 10 0 6 4 10 9 10 6 0 13 -4 16 -10z m-4475
-50 c0 -5 -7 -10 -16 -10 -8 0 -12 5 -9 10 3 6 10 10 16 10 5 0 9 -4 9 -10z
m5490 -54 c0 -11 -19 -15 -25 -6 -3 5 1 10 9 10 9 0 16 -2 16 -4z m30 -6 c0
-5 -4 -10 -10 -10 -5 0 -10 5 -10 10 0 6 5 10 10 10 6 0 10 -4 10 -10z m505
-30 c3 -5 1 -10 -4 -10 -6 0 -11 5 -11 10 0 6 2 10 4 10 3 0 8 -4 11 -10z
m225 -40 c0 -5 -4 -10 -10 -10 -5 0 -10 5 -10 10 0 6 5 10 10 10 6 0 10 -4 10
-10z m-6574 -138 c-15 -15 -46 -10 -46 7 0 5 8 17 17 26 16 16 17 16 30 -1 11
-15 11 -20 -1 -32z m1519 9 c3 -5 1 -12 -5 -16 -5 -3 -10 1 -10 9 0 18 6 21
15 7z m4195 -41 c0 -5 -4 -10 -10 -10 -5 0 -10 5 -10 10 0 6 5 10 10 10 6 0
10 -4 10 -10z m900 -5 c0 -16 -27 -32 -37 -22 -3 4 -3 13 0 22 8 20 37 20 37
0z m-2356 -14 c3 -5 -1 -11 -9 -15 -9 -3 -15 0 -15 9 0 16 16 20 24 6z m-2759
-31 c-3 -5 -10 -10 -16 -10 -5 0 -9 5 -9 10 0 6 7 10 16 10 8 0 12 -4 9 -10z
m-335 -20 c0 -13 -7 -20 -20 -20 -19 0 -27 20 -13 33 13 14 33 6 33 -13z m55
-10 c3 -5 -1 -10 -10 -10 -9 0 -13 5 -10 10 3 6 8 10 10 10 2 0 7 -4 10 -10z
m405 -51 c0 -24 15 -56 40 -84 10 -11 31 -45 47 -75 37 -69 68 -121 83 -138 7
-7 10 -15 7 -18 -4 -5 -73 92 -143 201 -18 28 -42 62 -53 76 -11 15 -22 35
-24 45 -1 11 -6 24 -10 31 -5 7 4 6 23 -3 18 -10 30 -23 30 -35z m-172 -7 c2
-7 -3 -12 -12 -12 -9 0 -16 7 -16 16 0 17 22 14 28 -4z m3802 3 c0 -8 -4 -15
-9 -15 -13 0 -22 16 -14 24 11 11 23 6 23 -9z m840 5 c0 -5 -4 -10 -10 -10 -5
0 -10 5 -10 10 0 6 5 10 10 10 6 0 10 -4 10 -10z m-5440 -30 c0 -5 -7 -10 -15
-10 -8 0 -15 5 -15 10 0 6 7 10 15 10 8 0 15 -4 15 -10z m4170 -35 c0 -8 -7
-15 -15 -15 -8 0 -15 7 -15 15 0 8 7 15 15 15 8 0 15 -7 15 -15z m275 -15 c-3
-5 -10 -10 -16 -10 -5 0 -9 5 -9 10 0 6 7 10 16 10 8 0 12 -4 9 -10z m1440
-10 c3 -5 -1 -10 -10 -10 -9 0 -13 5 -10 10 3 6 8 10 10 10 2 0 7 -4 10 -10z
m-5300 -10 c3 -5 -1 -10 -10 -10 -9 0 -13 5 -10 10 3 6 8 10 10 10 2 0 7 -4
10 -10z m-85 -40 c0 -5 -7 -10 -15 -10 -8 0 -15 5 -15 10 0 6 7 10 15 10 8 0
15 -4 15 -10z m5220 -10 c0 -5 -4 -10 -10 -10 -5 0 -10 5 -10 10 0 6 5 10 10
10 6 0 10 -4 10 -10z m-7113 -26 c-9 -9 -28 6 -21 18 4 6 10 6 17 -1 6 -6 8
-13 4 -17z m4743 11 c0 -8 -7 -15 -15 -15 -16 0 -20 12 -8 23 11 12 23 8 23
-8z m-4873 -10 c7 -20 -2 -29 -21 -22 -9 4 -13 13 -10 22 8 19 23 19 31 0z
m1313 -15 c0 -5 -2 -10 -4 -10 -3 0 -8 5 -11 10 -3 6 -1 10 4 10 6 0 11 -4 11
-10z m6340 -50 c0 -5 -2 -10 -4 -10 -3 0 -8 5 -11 10 -3 6 -1 10 4 10 6 0 11
-4 11 -10z m-80 -30 c0 -5 -4 -10 -10 -10 -5 0 -10 5 -10 10 0 6 5 10 10 10 6
0 10 -4 10 -10z m-550 -20 c0 -5 -4 -10 -10 -10 -5 0 -10 5 -10 10 0 6 5 10
10 10 6 0 10 -4 10 -10z m-5570 -30 c0 -5 -4 -10 -10 -10 -5 0 -10 5 -10 10 0
6 5 10 10 10 6 0 10 -4 10 -10z m5555 -30 c3 -5 -1 -10 -9 -10 -9 0 -16 5 -16
10 0 6 4 10 9 10 6 0 13 -4 16 -10z m-245 -60 c0 -5 -4 -10 -10 -10 -5 0 -10
5 -10 10 0 6 5 10 10 10 6 0 10 -4 10 -10z m-5540 -10 c0 -5 -4 -10 -10 -10
-5 0 -10 5 -10 10 0 6 5 10 10 10 6 0 10 -4 10 -10z m4170 -60 c0 -5 -7 -10
-15 -10 -8 0 -15 5 -15 10 0 6 7 10 15 10 8 0 15 -4 15 -10z m-2620 -36 c0 -8
-4 -12 -10 -9 -5 3 -10 10 -10 16 0 5 5 9 10 9 6 0 10 -7 10 -16z m-2910 -54
c0 -5 -7 -10 -15 -10 -8 0 -15 5 -15 10 0 6 7 10 15 10 8 0 15 -4 15 -10z
m2880 -20 c0 -13 -7 -20 -20 -20 -19 0 -27 20 -13 33 13 14 33 6 33 -13z
m-952 -18 c2 -7 -5 -12 -17 -12 -14 0 -19 5 -14 15 6 17 25 15 31 -3z m3162 8
c0 -5 -4 -10 -10 -10 -5 0 -10 5 -10 10 0 6 5 10 10 10 6 0 10 -4 10 -10z
m2330 -29 c0 -6 -4 -13 -10 -16 -5 -3 -10 1 -10 9 0 9 5 16 10 16 6 0 10 -4
10 -9z m-5100 -221 c0 -5 -7 -10 -16 -10 -8 0 -12 5 -9 10 3 6 10 10 16 10 5
0 9 -4 9 -10z m575 -210 c-3 -5 -10 -10 -16 -10 -5 0 -9 5 -9 10 0 6 7 10 16
10 8 0 12 -4 9 -10z"/>
<path d="M4728 7103 c7 -3 16 -2 19 1 4 3 -2 6 -13 5 -11 0 -14 -3 -6 -6z"/>
<path d="M1967 6903 c4 -10 17 -34 29 -53 12 -19 65 -107 117 -196 52 -89 176
-293 275 -455 211 -347 316 -525 464 -788 60 -106 196 -338 302 -515 106 -176
271 -456 366 -621 220 -381 374 -632 412 -669 16 -16 38 -48 49 -70 22 -46 41
-78 50 -86 4 -3 30 -54 59 -115 80 -169 183 -346 199 -343 12 3 180 280 453
748 34 58 89 152 123 210 34 58 105 179 157 270 188 326 281 486 427 728 81
136 174 297 206 357 129 245 210 392 237 432 15 23 28 46 28 51 0 6 4 12 8 14
4 2 50 71 102 153 51 83 108 173 125 200 213 335 456 745 448 758 -2 4 -912 7
-2022 7 -1771 0 -2020 -2 -2031 -15 -11 -13 -15 -13 -33 0 -18 12 -69 15 -289
15 -250 0 -267 -1 -261 -17z m681 -41 c2 -7 -3 -12 -12 -12 -9 0 -16 7 -16 16
0 17 22 14 28 -4z m2557 -2 c3 -5 1 -10 -4 -10 -6 0 -11 5 -11 10 0 6 2 10 4
10 3 0 8 -4 11 -10z m-2616 -23 c12 -15 5 -27 -16 -27 -7 0 -13 9 -13 20 0 23
13 26 29 7z m1731 -32 c0 -8 -7 -15 -15 -15 -8 0 -15 7 -15 15 0 8 7 15 15 15
8 0 15 -7 15 -15z m-982 -13 c2 -7 -3 -12 -12 -12 -9 0 -16 7 -16 16 0 17 22
14 28 -4z m427 -6 c0 -25 -30 -45 -46 -29 -8 8 -8 17 1 33 14 25 45 23 45 -4z
m2046 1 c-13 -13 -26 -3 -16 12 3 6 11 8 17 5 6 -4 6 -10 -1 -17z m389 -2 c0
-8 -7 -15 -15 -15 -8 0 -15 7 -15 15 0 8 7 15 15 15 8 0 15 -7 15 -15z m-45
-5 c3 -5 -1 -10 -9 -10 -9 0 -16 5 -16 10 0 6 4 10 9 10 6 0 13 -4 16 -10z
m-1615 -45 c0 -8 -4 -15 -9 -15 -13 0 -22 16 -14 24 11 11 23 6 23 -9z m-980
-15 c0 -5 -4 -10 -10 -10 -5 0 -10 5 -10 10 0 6 5 10 10 10 6 0 10 -4 10 -10z
m1992 -27 c22 -20 23 -41 3 -79 -12 -23 -15 -25 -21 -11 -3 9 -16 17 -28 17
-31 0 -33 54 -3 75 27 19 26 19 49 -2z m-1372 -3 c0 -5 -4 -10 -10 -10 -5 0
-10 5 -10 10 0 6 5 10 10 10 6 0 10 -4 10 -10z m350 -10 c0 -5 -7 -10 -15 -10
-8 0 -15 5 -15 10 0 6 7 10 15 10 8 0 15 -4 15 -10z m1688 -42 c-6 -18 -28
-21 -28 -4 0 9 7 16 16 16 9 0 14 -5 12 -12z m-1435 -27 c6 -23 0 -31 -24 -31
-27 0 -35 21 -14 37 25 18 32 17 38 -6z m1247 9 c0 -5 -5 -10 -11 -10 -5 0 -7
5 -4 10 3 6 8 10 11 10 2 0 4 -4 4 -10z m-3765 -21 c8 -26 -6 -42 -28 -33 -20
7 -22 25 -5 42 17 17 26 15 33 -9z m2855 -35 c0 -14 -21 -19 -33 -7 -9 9 13
34 24 27 5 -3 9 -12 9 -20z m767 -30 c-9 -9 -28 6 -21 18 4 6 10 6 17 -1 6 -6
8 -13 4 -17z m-2697 -34 c0 -5 -4 -10 -10 -10 -5 0 -10 5 -10 10 0 6 5 10 10
10 6 0 10 -4 10 -10z m2790 -30 c0 -5 -4 -10 -10 -10 -5 0 -10 5 -10 10 0 6 5
10 10 10 6 0 10 -4 10 -10z m-350 -70 c0 -5 -4 -10 -10 -10 -5 0 -10 5 -10 10
0 6 5 10 10 10 6 0 10 -4 10 -10z m-450 -6 c0 -16 -23 -44 -35 -44 -21 0 -19
27 3 39 19 12 32 14 32 5z m60 -4 c0 -5 -4 -10 -10 -10 -5 0 -10 5 -10 10 0 6
5 10 10 10 6 0 10 -4 10 -10z m-1500 -40 c0 -5 -2 -10 -4 -10 -3 0 -8 5 -11
10 -3 6 -1 10 4 10 6 0 11 -4 11 -10z m1188 -17 c-2 -10 -10 -18 -18 -18 -8 0
-16 8 -18 18 -2 12 3 17 18 17 15 0 20 -5 18 -17z m-2243 -19 c0 -13 -7 -19
-23 -19 -13 0 -30 -9 -37 -18 -8 -11 -16 -14 -19 -8 -8 12 55 72 69 68 6 -2
10 -12 10 -23z m745 -24 c0 -5 -7 -10 -15 -10 -8 0 -15 5 -15 10 0 6 7 10 15
10 8 0 15 -4 15 -10z m1510 0 c0 -5 -4 -10 -10 -10 -5 0 -10 5 -10 10 0 6 5
10 10 10 6 0 10 -4 10 -10z m900 -6 c0 -8 -4 -12 -10 -9 -5 3 -10 10 -10 16 0
5 5 9 10 9 6 0 10 -7 10 -16z m-3182 -55 c-10 -7 -9 -9 4 -9 12 0 15 -6 11
-22 -3 -15 -2 -19 4 -11 6 9 54 -78 148 -270 153 -313 272 -564 277 -587 2 -8
8 -18 13 -22 6 -4 2 -8 -9 -8 -12 0 -16 -5 -12 -15 3 -8 3 -15 0 -15 -9 0
-441 891 -447 923 -1 7 -8 18 -14 25 -16 16 -16 29 -3 37 6 4 8 12 4 18 -3 7
4 1 16 -12 16 -19 18 -26 8 -32z m187 5 c10 -25 18 -32 30 -27 10 3 21 0 26
-8 13 -20 11 -29 -6 -29 -8 0 -15 -2 -15 -5 0 -2 44 -93 98 -202 103 -209 114
-233 181 -408 73 -186 81 -210 81 -232 0 -12 5 -25 11 -28 6 -4 8 -13 5 -21
-3 -7 -1 -16 4 -19 6 -4 10 -12 9 -18 0 -9 -2 -9 -6 1 -2 6 -12 12 -21 12 -18
0 -82 89 -82 114 0 8 -4 17 -8 20 -11 6 -130 247 -167 336 -15 36 -35 83 -45
105 -10 22 -30 74 -45 115 -114 321 -110 306 -94 322 18 20 26 15 44 -28z
m3093 -97 c2 -12 -3 -17 -17 -17 -12 0 -21 6 -21 13 0 31 32 34 38 4z m-228
-27 c0 -5 -7 -10 -15 -10 -8 0 -15 5 -15 10 0 6 7 10 15 10 8 0 15 -4 15 -10z
m-1302 -59 c3 -8 -1 -12 -9 -9 -7 2 -15 10 -17 17 -3 8 1 12 9 9 7 -2 15 -10
17 -17z m1032 -22 c0 -5 -3 -9 -7 -9 -5 0 -18 -3 -30 -6 -17 -5 -23 -2 -23 9
0 16 26 26 48 19 6 -2 12 -8 12 -13z m-990 -25 c0 -9 -5 -14 -12 -12 -18 6
-21 28 -4 28 9 0 16 -7 16 -16z m230 -39 c0 -8 -7 -15 -15 -15 -8 0 -15 7 -15
15 0 8 7 15 15 15 8 0 15 -7 15 -15z m143 -41 c3 -3 3 -12 0 -19 -6 -17 -33
-8 -33 11 0 14 21 19 33 8z m-233 -34 c0 -5 -7 -10 -15 -10 -8 0 -15 5 -15 10
0 6 7 10 15 10 8 0 15 -4 15 -10z m990 -5 c0 -8 -7 -15 -15 -15 -8 0 -15 7
-15 15 0 8 7 15 15 15 8 0 15 -7 15 -15z m204 -108 c-21 -45 -59 -124 -85
-175 -26 -50 -43 -95 -38 -98 17 -10 9 -33 -12 -36 -14 -2 -30 -20 -46 -50
-26 -49 -43 -61 -43 -31 0 23 219 456 235 466 8 4 12 15 9 25 -5 15 -4 15 6
-1 9 -15 4 -33 -26 -100z m-2274 77 c0 -8 -8 -14 -18 -14 -25 0 -34 11 -21 26
13 15 39 7 39 -12z m530 -24 c0 -5 -4 -10 -10 -10 -5 0 -10 5 -10 10 0 6 5 10
10 10 6 0 10 -4 10 -10z m1651 -50 c-4 -3 -11 -18 -15 -33 -3 -15 -29 -75 -56
-133 -28 -57 -50 -110 -50 -117 0 -8 -13 -29 -30 -47 -30 -34 -35 -35 -24 -6
3 9 11 13 18 9 7 -4 6 -1 -2 9 -10 12 -10 17 1 27 8 6 18 7 22 3 5 -4 5 -1 1
6 -4 7 -1 24 8 37 9 13 16 28 16 32 0 4 -4 2 -9 -6 -5 -7 -11 -9 -14 -5 -3 5
22 66 56 136 52 110 62 125 73 110 7 -9 9 -19 5 -22z m-2491 15 c0 -8 -7 -15
-15 -15 -8 0 -15 7 -15 15 0 8 7 15 15 15 8 0 15 -7 15 -15z m1320 -15 c0 -5
-4 -10 -10 -10 -5 0 -10 5 -10 10 0 6 5 10 10 10 6 0 10 -4 10 -10z m148 -2
c-3 -7 -11 -13 -18 -13 -7 0 -15 6 -17 13 -3 7 4 12 17 12 13 0 20 -5 18 -12z
m692 -2 c0 -3 -4 -8 -10 -11 -5 -3 -10 -1 -10 4 0 6 5 11 10 11 6 0 10 -2 10
-4z m-2543 -58 c-3 -8 -6 -5 -6 6 -1 11 2 17 5 13 3 -3 4 -12 1 -19z m1533 7
c0 -8 -7 -15 -15 -15 -16 0 -20 12 -8 23 11 12 23 8 23 -8z m706 -22 c-10 -10
-19 5 -10 18 6 11 8 11 12 0 2 -7 1 -15 -2 -18z m-1393 3 c7 -18 -1 -26 -25
-26 -18 0 -25 20 -11 33 11 12 31 8 36 -7z m1457 -12 c0 -8 -5 -12 -10 -9 -6
4 -8 11 -5 16 9 14 15 11 15 -7z m-660 -9 c0 -8 -4 -15 -9 -15 -13 0 -22 16
-14 24 11 11 23 6 23 -9z m-230 -5 c0 -5 -4 -10 -10 -10 -5 0 -10 5 -10 10 0
6 5 10 10 10 6 0 10 -4 10 -10z m420 -15 c0 -8 -7 -15 -15 -15 -16 0 -20 12
-8 23 11 12 23 8 23 -8z m-1275 -25 c3 -5 -1 -10 -9 -10 -9 0 -16 5 -16 10 0
6 4 10 9 10 6 0 13 -4 16 -10z m1200 -90 c-3 -5 -10 -10 -16 -10 -5 0 -9 5 -9
10 0 6 7 10 16 10 8 0 12 -4 9 -10z m325 -11 c0 -5 -7 -9 -15 -9 -15 0 -20 12
-9 23 8 8 24 -1 24 -14z m650 -10 c-7 -11 -14 -19 -16 -16 -7 7 7 37 17 37 6
0 5 -9 -1 -21z m-630 -34 c0 -8 -7 -15 -15 -15 -16 0 -20 12 -8 23 11 12 23 8
23 -8z m-620 -35 c0 -5 -7 -10 -15 -10 -8 0 -15 5 -15 10 0 6 7 10 15 10 8 0
15 -4 15 -10z m122 -45 c0 -5 -5 -11 -11 -13 -6 -2 -11 4 -11 13 0 9 5 15 11
13 6 -2 11 -8 11 -13z m1049 -18 c-1 -12 -15 -9 -19 4 -3 6 1 10 8 8 6 -3 11
-8 11 -12z m-751 -7 c0 -5 -4 -10 -10 -10 -5 0 -10 5 -10 10 0 6 5 10 10 10 6
0 10 -4 10 -10z m-760 -45 c0 -8 -7 -15 -15 -15 -8 0 -15 7 -15 15 0 8 7 15
15 15 8 0 15 -7 15 -15z m-809 -75 c10 0 19 -7 19 -15 0 -22 -27 -19 -40 4 -5
11 -10 23 -9 28 0 4 3 2 6 -4 2 -7 13 -13 24 -13z m2069 0 c0 -5 -2 -10 -4
-10 -3 0 -8 5 -11 10 -3 6 -1 10 4 10 6 0 11 -4 11 -10z m-920 -20 c0 -5 -5
-10 -11 -10 -5 0 -7 5 -4 10 3 6 8 10 11 10 2 0 4 -4 4 -10z m-810 -10 c0 -5
-4 -10 -10 -10 -5 0 -10 5 -10 10 0 6 5 10 10 10 6 0 10 -4 10 -10z m-117 -55
c1 -5 -6 -11 -15 -13 -11 -2 -18 3 -18 13 0 17 30 18 33 0z m797 -35 c-24 -15
-40 -12 -40 9 0 25 21 32 40 14 13 -12 13 -15 0 -23z m-972 -15 c-3 -3 -9 2
-12 12 -6 14 -5 15 5 6 7 -7 10 -15 7 -18z m912 -30 c0 -9 -6 -12 -15 -9 -8 4
-12 10 -9 15 8 14 24 10 24 -6z m-872 -56 c-3 -8 -7 -3 -11 10 -4 17 -3 21 5
13 5 -5 8 -16 6 -23z m602 21 c0 -5 -4 -10 -9 -10 -6 0 -13 5 -16 10 -3 6 1
10 9 10 9 0 16 -4 16 -10z m-435 -110 c6 0 16 -4 24 -9 11 -7 12 -13 4 -23 -9
-10 -2 -32 28 -93 22 -44 69 -152 105 -240 36 -88 72 -174 80 -192 8 -17 14
-38 14 -46 0 -9 4 -18 9 -21 4 -3 14 -33 20 -66 7 -33 16 -60 20 -60 5 0 11
-6 14 -13 4 -10 -2 -13 -19 -9 -17 3 -32 21 -56 71 -18 36 -33 71 -33 77 0 6
-5 18 -11 25 -16 19 -144 283 -144 296 0 5 -9 18 -20 28 -11 10 -20 16 -20 12
0 -3 63 -135 141 -294 78 -158 161 -331 186 -383 25 -52 70 -146 100 -208 31
-62 54 -114 51 -117 -2 -3 -28 41 -56 98 -58 116 -138 266 -203 380 -71 125
-137 247 -171 315 -18 34 -38 62 -45 62 -7 0 -10 7 -7 15 4 8 -35 101 -85 207
-51 105 -93 196 -94 202 -1 6 5 10 13 8 12 -3 13 -1 3 9 -7 7 -13 20 -13 28 0
26 15 2 95 -156 43 -84 82 -150 87 -147 5 3 4 12 -3 20 -6 8 -9 14 -5 14 4 0
-2 17 -12 38 -11 20 -29 71 -42 112 -12 41 -26 79 -31 85 -5 5 -9 13 -9 19 0
5 7 1 15 -10 14 -19 14 -19 15 3 0 12 -4 23 -10 25 -5 2 -7 13 -4 26 6 19 10
15 33 -33 14 -30 31 -55 36 -55z m-265 59 c0 -6 -4 -7 -10 -4 -5 3 -10 11 -10
16 0 6 5 7 10 4 6 -3 10 -11 10 -16z m2110 -219 c8 -5 11 -12 7 -16 -4 -4 -15
0 -24 9 -18 18 -8 23 17 7z m-1060 -10 c0 -5 -4 -10 -10 -10 -5 0 -10 5 -10
10 0 6 5 10 10 10 6 0 10 -4 10 -10z m290 -150 c0 -5 -4 -10 -10 -10 -5 0 -10
5 -10 10 0 6 5 10 10 10 6 0 10 -4 10 -10z m-565 -90 c3 -5 -1 -10 -9 -10 -9
0 -16 5 -16 10 0 6 4 10 9 10 6 0 13 -4 16 -10z m-17 -28 c2 -7 -3 -12 -12
-12 -9 0 -16 7 -16 16 0 17 22 14 28 -4z m1046 -27 c3 -9 -1 -18 -10 -22 -19
-7 -28 2 -21 22 8 19 23 19 31 0z m-324 -35 c0 -5 -4 -10 -10 -10 -5 0 -10 5
-10 10 0 6 5 10 10 10 6 0 10 -4 10 -10z m260 -70 c0 -5 -4 -10 -10 -10 -5 0
-10 5 -10 10 0 6 5 10 10 10 6 0 10 -4 10 -10z m-640 -30 c0 -5 -4 -10 -10
-10 -5 0 -10 5 -10 10 0 6 5 10 10 10 6 0 10 -4 10 -10z m-120 -40 c0 -5 -5
-10 -11 -10 -5 0 -7 5 -4 10 3 6 8 10 11 10 2 0 4 -4 4 -10z m-284 -31 c3 -6
2 -15 -2 -19 -12 -12 -38 5 -30 19 9 14 23 14 32 0z m559 -59 c3 -5 -1 -10 -9
-10 -9 0 -16 5 -16 10 0 6 4 10 9 10 6 0 13 -4 16 -10z m480 -91 c10 -15 -1
-23 -20 -15 -9 3 -13 10 -10 16 8 13 22 13 30 -1z m-950 -499 c3 -5 1 -10 -4
-10 -6 0 -11 5 -11 10 0 6 2 10 4 10 3 0 8 -4 11 -10z"/>
<path d="M3082 5320 c0 -14 2 -19 5 -12 2 6 2 18 0 25 -3 6 -5 1 -5 -13z"/>
<path d="M5655 5759 c-4 -6 -5 -12 -2 -15 2 -3 7 2 10 11 7 17 1 20 -8 4z"/>
<path d="M5635 5710 c-3 -5 -1 -10 4 -10 6 0 11 5 11 10 0 6 -2 10 -4 10 -3 0
-8 -4 -11 -10z"/>
<path d="M3240 4977 c0 -2 9 -14 20 -27 11 -13 20 -18 20 -12 0 6 -7 18 -16
26 -15 15 -24 20 -24 13z"/>
<path d="M6135 5909 c-4 -6 -5 -12 -2 -15 2 -3 7 2 10 11 7 17 1 20 -8 4z"/>
<path d="M7036 6751 c-3 -5 1 -11 9 -14 9 -4 12 -1 8 9 -6 16 -10 17 -17 5z"/>
<path d="M6924 6589 c-8 -14 14 -19 25 -6 8 10 7 14 -5 14 -8 0 -17 -4 -20 -8z"/>
<path d="M6876 6522 c-3 -5 1 -9 9 -9 8 0 12 4 9 9 -3 4 -7 8 -9 8 -2 0 -6 -4
-9 -8z"/>
<path d="M1308 2158 c-71 -49 -140 -89 -145 -84 -2 2 22 29 54 60 l58 56 -175
-1 c-96 -1 -283 -4 -415 -8 l-240 -7 -70 -36 c-38 -20 -83 -39 -100 -43 -26
-5 -21 0 27 35 32 23 58 43 58 46 0 3 -37 3 -82 0 -46 -2 -127 -5 -180 -5
l-98 -1 0 -1085 0 -1085 4295 0 4295 0 0 1084 0 1084 -77 4 c-101 4 -126 0
-119 -18 7 -18 0 -18 -55 0 -34 11 -134 16 -446 19 -388 5 -402 4 -393 -13 17
-31 12 -32 -37 -5 l-48 25 -402 0 c-222 0 -403 -2 -403 -4 0 -3 4 -16 10 -30
8 -21 7 -24 -8 -19 -9 4 -19 9 -22 12 -36 42 -29 41 -464 48 l-417 6 11 -28
c6 -16 8 -36 5 -44 -5 -13 -15 -7 -44 27 l-38 44 -403 5 -402 6 3 -45 c4 -41
2 -46 -18 -46 -17 0 -26 11 -39 43 l-16 43 -399 2 -399 1 -9 -23 c-5 -13 -15
-38 -21 -55 -7 -18 -16 -31 -20 -28 -5 3 -10 -1 -13 -7 -9 -25 -19 2 -21 54
l-1 53 -397 3 -396 3 -23 -38 c-30 -50 -79 -107 -79 -92 0 8 -4 8 -15 -1 -21
-17 -19 -9 14 65 l30 65 -388 0 c-437 0 -392 8 -489 -84 -75 -71 -97 -46 -27
30 19 21 35 41 35 45 0 4 -178 6 -395 5 l-395 -1 -52 -37z m3578 -334 c14 -38
30 -75 36 -81 6 -8 36 -13 72 -14 90 -1 129 -17 46 -18 -36 -1 -76 -4 -89 -8
l-24 -6 5 -144 c3 -78 2 -143 -2 -143 -3 0 -21 63 -40 141 -24 101 -38 144
-52 153 -14 10 -16 15 -6 18 9 3 14 31 17 92 1 48 5 86 7 84 2 -2 15 -35 30
-74z m-2241 -404 c-60 -121 -105 -223 -102 -227 4 -3 46 -10 94 -15 206 -22
206 -22 43 -29 -85 -3 -160 -7 -167 -8 -6 0 -32 -32 -58 -70 -49 -72 -95 -123
-95 -103 0 7 14 42 30 79 36 79 37 91 8 103 l-23 9 22 0 c27 1 71 47 117 122
18 30 63 103 99 162 37 59 67 110 67 113 0 12 62 95 67 90 3 -3 -43 -104 -102
-226z m3986 -988 c40 -69 87 -100 167 -108 34 -4 62 -10 62 -15 0 -4 -28 -9
-62 -11 l-63 -3 2 -48 1 -49 -24 23 c-13 12 -26 30 -29 39 -7 23 -48 40 -98
40 -65 0 -78 16 -17 22 79 8 81 15 32 113 -23 47 -42 88 -42 92 0 12 42 -42
71 -95z"/>
</g>
</svg>
